<svg xmlns="http://www.w3.org/2000/svg" width="115" height="100" viewBox="0 0 326 301" preserveAspectRatio="xMidYMid meet" >
	<style>
		#sun { fill: #00a2c2; }
		#loader { fill: #FFF; }

		#loader {
			transform-origin: 120px 180px;
			animation: spinner 2s infinite linear;
		}

		@keyframes spinner {
			from {
				transform: rotate(0deg);
			}
			to {
				transform: rotate(360deg);
			}
		}
	</style>

  <g id="sun">
    <path d="M128.4,35.5c0.1-9.6,7.9-17.4,17.6-17.4c9.7,0,17.6,8,17.5,17.8c-0.1,9.8-8.1,17.5-17.9,17.4C136,53.1,128.3,45.2,128.4,35.5"/>
    <path d="M196.2,0c9.6,0,17.5,7.9,17.5,17.5c0,9.7-7.9,17.6-17.7,17.6c-9.6,0-17.5-7.8-17.5-17.5C178.5,7.9,186.4,0,196.2,0"/>
    <path d="M248.8,9.6c9.8,0,17.6,8,17.6,17.8c0,9.6-8,17.5-17.6,17.4c-9.7-0.1-17.8-8.2-17.6-17.8C231.4,17.3,239.2,9.6,248.8,9.6"/>
    <path d="M307.1,62.1c-0.1,9.8-8,17.5-17.9,17.3c-9.6-0.2-17.3-8.2-17.1-17.8c0.1-9.7,7.9-17.3,17.6-17.3C299.5,44.3,307.2,52.2,307.1,62.1"/>
    <path d="M325.2,112.4c-0.1,9.8-8,17.5-17.9,17.3c-9.6-0.2-17.2-8.1-17.2-17.8c0.1-9.7,8-17.3,17.7-17.3C317.6,94.6,325.3,102.5,325.2,112.4"/>
    <path d="M298.2,182.4c-9.8,0-17.7-8-17.7-17.7c0.1-9.6,8-17.5,17.6-17.5c9.7,0,17.7,8,17.6,17.7C315.7,174.5,307.8,182.4,298.2,182.4"/>
    <path d="M245.9,205.2c0.2-9.9,8.2-17.5,18-17.3c9.6,0.2,17.3,8.2,17.1,17.8c-0.1,9.8-8.1,17.4-18,17.2C253.4,222.8,245.8,214.9,245.9,205.2"/>
  </g>

  <g id="loader">
    <path d="M111.4,94.3c-9.7,0-17.6-8-17.6-17.8c0.1-9.5,8.2-17.5,17.7-17.3c9.8,0.2,17.6,8,17.6,17.8C129,86.5,121,94.4,111.4,94.3"/>
    <path d="M78.7,95c0,9.6-7.9,17.5-17.4,17.6c-9.7,0-17.6-7.9-17.6-17.8c0-9.6,7.9-17.5,17.5-17.5C71,77.3,78.7,85.1,78.7,95"/>
    <path d="M10.1,134.3c0-9.7,7.8-17.5,17.4-17.6c9.7-0.1,17.6,7.9,17.6,17.7c0,9.7-7.7,17.6-17.4,17.6C18,151.9,10.1,144.1,10.1,134.3"/>
    <path d="M0.1,189.3c0-1.3,0-2.5-0.1-3.8c1.9-9.6,6.8-14.7,15.4-16c6.5-1,13.7,2.4,17.2,8.2c3.8,6.4,3.4,13.9-1,19.9c-3.9,5.3-11.4,8-17.7,6.5C6.1,202.1,1.8,196.9,0.1,189.3"/>
    <path d="M52.8,237.5c-0.2,10-8.1,17.7-17.8,17.5c-9.9-0.2-17.5-8.4-17.3-18.4c0.3-9.4,8.3-17,17.8-16.9C45.1,219.9,53,228,52.8,237.5"/>
    <path d="M75.8,289.9c-9.8,0-17.6-8-17.5-17.7c0.1-9.9,7.9-17.4,18.2-17.3c9.1,0.1,17.1,8.4,17,17.7C93.3,282.2,85.4,289.9,75.8,289.9"/>
    <path d="M110.8,282.1c0.1-9.7,8-17.3,17.7-17.3c9.6,0,17.4,8.1,17.3,18c-0.1,9.8-8.2,17.4-18.1,17.2C118.1,299.8,110.6,291.9,110.8,282.1"/>
    <path d="M161.3,264.3c0.1-9.7,8-17.3,17.7-17.3c9.6,0,17.5,8.2,17.3,18c-0.1,9.8-8.2,17.4-18.1,17.2C168.6,282,161.1,274.1,161.3,264.3"/>
    <path d="M230.9,224.2c0,9.6-8.1,17.6-17.5,17.5c-9.8-0.1-17.6-8-17.7-17.8c0-9.4,8.1-17.5,17.6-17.5C223.1,206.4,231,214.4,230.9,224.2"/>
    <path d="M205.5,171.3c0-9.8,7.7-17.5,17.4-17.5c9.8,0,17.6,7.8,17.6,17.6c0,9.7-7.7,17.4-17.4,17.4C213.2,189,205.5,181.2,205.5,171.3"/>
    <path d="M205,138.6c-9.6,0-17.6-7.8-17.6-17.3c-0.1-9.9,7.6-17.7,17.4-17.9c9.5-0.2,17.8,8.2,17.7,17.7C222.4,130.8,214.6,138.6,205,138.6"/>
    <path d="M164,103.9c-9.6,0-17.7-8.1-17.6-17.5c0.2-10,7.9-17.7,17.7-17.7c9.7,0,17.6,8,17.5,17.8C181.6,96.2,173.7,103.9,164,103.9"/>
  </g>
</svg>
